# xmcd
#
# Track frame offsets: 
#        150
#        21620
#        47417
#        70635
#        94945
#        118395
#        147807
#        173205
#        194712
#        217540
#        243897
#
# Disc length: 3573 seconds
#
# Revision: 2
# Processed by: cddbd v1.5.2PL0 Copyright (c) Steve Scherf et al.
# Submitted via: ExactAudioCopy v1.0b3
#
DISCID=9b0df30b
DTITLE=Norman Brown - The Very Best of Norman Brown
DYEAR=2005
DGENRE=Jazz
TTITLE0=That's the Way Love Goes
TTITLE1=Better Days Ahead
TTITLE2=Just Between Us
TTITLE3=Any Love
TTITLE4=Too High
TTITLE5=Lydian
TTITLE6=Moonlight Tonight
TTITLE7=After the Storm
TTITLE8=After the Love Is Gone
TTITLE9=Your Body's Callin'
TTITLE10=For the Love of You
EXTD=YEAR: 2005
EXTT0=
EXTT1=
EXTT2=
EXTT3=
EXTT4=
EXTT5=
EXTT6=
EXTT7=
EXTT8=
EXTT9=
EXTT10=
PLAYORDER=
